<svg width="15" height="18" viewBox="0 0 15 18" fill="none" xmlns="http://www.w3.org/2000/svg">
<path fill-rule="evenodd" clip-rule="evenodd" d="M4.55596 1.03688C4.21482 0.835941 3.77536 0.949588 3.57442 1.29073L3.0647 2.15605C3.00681 2.17731 2.94863 2.20656 2.89066 2.24453C2.73612 2.34574 2.58576 2.45529 2.44002 2.57331C-0.564419 5.00626 -0.464184 10.11 2.66388 13.9729C5.79197 17.8357 10.7634 18.9949 13.7678 16.5619C13.9135 16.4439 14.0519 16.3196 14.1831 16.1895C14.7723 15.6047 14.1452 14.7308 13.3176 14.6652C10.9453 14.4769 8.41849 13.1341 6.54962 10.8263C4.68074 8.51839 3.89266 5.76757 4.20174 3.40802C4.21736 3.28876 4.2155 3.17008 4.19881 3.0557L4.8098 2.01844C5.01076 1.6773 4.89711 1.23784 4.55596 1.03688Z" fill="url(#paint0_linear_5_6)"/>
<defs>
<linearGradient id="paint0_linear_5_6" x1="4.5" y1="1.5" x2="12.5" y2="16.5" gradientUnits="userSpaceOnUse">
<stop stop-color="#FFB800"/>
<stop offset="0.484375" stop-color="#FFF500"/>
<stop offset="1" stop-color="#FFD600"/>
</linearGradient>
</defs>
</svg>
